<?xml version="1.0" standalone="no"?>
<!DOCTYPE svg PUBLIC "-//W3C//DTD SVG 20010904//EN"
 "http://www.w3.org/TR/2001/REC-SVG-20010904/DTD/svg10.dtd">
<svg version="1.0" xmlns="http://www.w3.org/2000/svg"
 width="700.000000pt" height="700.000000pt" viewBox="0 0 700.000000 700.000000"
 preserveAspectRatio="xMidYMid meet">
<metadata>
Created by potrace 1.11, written by Peter Selinger 2001-2013
</metadata>
<g transform="translate(0.000000,700.000000) scale(0.100000,-0.100000)"
fill="#000000" stroke="none">
<path d="M324 3508 c0 -1756 3 -3195 7 -3198 9 -6 5587 -5 5592 1 2 2 18 60
35 129 30 118 75 294 172 665 23 88 51 196 62 240 22 89 22 88 33 130 48 184
86 334 91 359 3 16 7 32 9 35 3 6 59 221 160 616 18 72 53 209 78 305 25 96
71 274 102 395 31 121 62 241 70 267 13 44 12 54 -25 195 -21 81 -75 292 -120
468 -44 176 -85 334 -91 351 -5 17 -11 40 -13 50 -2 10 -21 82 -41 159 -20 77
-38 147 -40 155 -2 8 -22 87 -45 175 -22 88 -43 167 -45 175 -1 8 -15 60 -30
115 -14 55 -28 111 -31 124 -3 13 -18 72 -33 130 -28 105 -40 151 -46 182 -2
9 -12 47 -23 85 -11 38 -22 80 -25 94 -3 14 -33 131 -66 260 -34 129 -78 301
-99 382 l-37 148 -2801 0 -2800 0 0 -3192z"/>
</g>
</svg>
