<?xml version="1.0" standalone="no"?>
<!DOCTYPE svg PUBLIC "-//W3C//DTD SVG 20010904//EN"
 "http://www.w3.org/TR/2001/REC-SVG-20010904/DTD/svg10.dtd">
<svg version="1.0" xmlns="http://www.w3.org/2000/svg"
 width="700.000000pt" height="700.000000pt" viewBox="0 0 700.000000 700.000000"
 preserveAspectRatio="xMidYMid meet">
<metadata>
Created by potrace 1.11, written by Peter Selinger 2001-2013
</metadata>
<g transform="translate(0.000000,700.000000) scale(0.100000,-0.100000)"
fill="#000000" stroke="none">
<path d="M3297 6704 c-1 -1 -33 -5 -72 -9 -62 -5 -181 -22 -285 -40 -256 -45
-587 -171 -845 -323 -246 -145 -540 -401 -722 -629 -43 -54 -82 -102 -86 -108
-113 -141 -286 -444 -385 -675 -46 -106 -152 -400 -152 -420 0 -5 44 6 98 25
114 40 227 74 268 81 16 2 61 11 99 19 62 13 220 35 251 35 7 0 41 47 75 105
132 221 329 449 514 593 44 34 86 67 93 73 40 32 203 127 299 174 110 54 131
62 267 110 77 28 285 79 359 90 27 3 57 8 66 10 100 19 449 26 611 13 335 -29
723 -155 990 -324 311 -197 568 -467 749 -786 23 -42 39 -58 54 -59 12 0 29
-2 38 -4 8 -1 41 -6 71 -9 57 -7 65 -8 153 -26 28 -5 63 -12 79 -14 48 -8 232
-66 363 -113 10 -4 -60 226 -86 282 -5 11 -23 55 -40 98 -153 378 -382 733
-652 1008 -111 113 -205 200 -254 236 -17 12 -63 47 -103 77 -186 141 -429
269 -682 360 -77 28 -308 91 -370 101 -19 3 -42 8 -50 10 -8 2 -37 7 -65 10
-27 3 -57 7 -65 10 -39 10 -194 18 -378 20 -111 1 -203 0 -205 -1z"/>
<path d="M3388 4535 c-2 -1 -30 -5 -63 -9 -249 -25 -548 -129 -780 -271 -27
-17 -66 -41 -85 -52 -19 -12 -39 -26 -45 -30 -5 -5 -48 -38 -95 -73 -106 -80
-276 -248 -365 -360 -211 -263 -373 -602 -425 -890 -6 -30 -12 -66 -15 -80 -9
-46 -18 -185 -18 -270 -1 -423 148 -839 430 -1207 86 -112 294 -321 399 -400
168 -127 366 -241 521 -298 38 -14 77 -29 88 -35 30 -14 151 -47 236 -64 425
-86 890 -18 1294 189 66 34 145 79 175 99 30 20 59 36 64 36 5 0 45 -35 90
-79 132 -128 157 -151 165 -151 4 0 53 48 109 108 55 59 144 152 197 207 l95
100 -115 110 -114 110 47 65 c182 249 312 552 368 860 34 185 38 479 9 629 -3
14 -8 42 -11 61 -22 140 -101 366 -186 530 -204 398 -565 757 -958 955 -91 46
-282 123 -345 140 -16 5 -34 9 -40 11 -39 11 -139 32 -180 38 -22 4 -64 10
-93 15 -48 7 -346 13 -354 6z m339 -760 c364 -67 695 -298 914 -640 65 -100
150 -315 165 -414 3 -20 9 -54 14 -76 5 -22 8 -107 6 -190 -3 -158 -19 -253
-62 -385 -28 -83 -132 -300 -145 -300 -4 0 -11 -9 -14 -20 -6 -19 -16 -12 -88
59 -45 44 -111 107 -147 141 l-65 61 -90 -94 c-49 -51 -140 -146 -202 -210
l-111 -117 128 -122 c71 -67 127 -124 125 -128 -8 -13 -157 -80 -230 -103
-153 -48 -242 -62 -410 -61 -346 1 -664 144 -925 414 -367 380 -476 883 -291
1343 79 198 201 368 376 525 71 65 211 162 268 188 18 8 39 18 47 23 35 22
171 70 251 90 158 39 327 45 486 16z"/>
<path d="M1445 4072 c-84 -8 -254 -48 -364 -84 -576 -189 -968 -654 -1062
-1258 -24 -153 -16 -443 15 -580 4 -14 8 -37 11 -52 3 -15 21 -75 40 -134 155
-471 503 -836 965 -1010 68 -26 231 -74 250 -74 6 0 -5 28 -25 63 -39 67 -160
307 -187 372 -76 180 -165 499 -184 660 -3 22 -7 51 -10 65 -8 46 -17 214 -17
315 0 187 25 399 64 558 12 45 22 89 24 98 19 98 114 347 185 490 108 214 264
447 378 565 13 14 -1 15 -83 6z"/>
<path d="M5490 4046 c151 -166 346 -485 440 -721 63 -157 140 -419 154 -525 3
-19 9 -66 15 -105 28 -183 31 -510 5 -665 -3 -19 -6 -42 -6 -50 -1 -27 -46
-243 -68 -325 -64 -236 -173 -494 -295 -700 l-45 -77 37 7 c146 27 417 143
565 242 349 234 592 610 678 1048 35 177 33 465 -4 644 -38 179 -124 396 -206
517 -16 25 -30 47 -30 50 0 15 -137 178 -197 234 -165 155 -284 234 -475 316
-79 34 -216 81 -262 90 -11 2 -48 10 -81 18 -56 14 -79 18 -208 32 l-49 6 32
-36z"/>
</g>
</svg>
