<svg xmlns="http://www.w3.org/2000/svg" xmlns:xlink="http://www.w3.org/1999/xlink" xmlns:fi="http://pattern.flaticon.com/" x="0" y="0" width="700" height="350" viewBox="0 0 700 350"><rect x="0px" y="0px" width="100%" height="100%" opacity="1" fill="#ffffe7"/><defs><g transform="matrix(0.1171875 0 0 0.1171875 117 58)" id="L1_0"><path d="M256,213.333c-23.521,0-42.667,19.135-42.667,42.667s19.146,42.667,42.667,42.667s42.667-19.135,42.667-42.667     S279.521,213.333,256,213.333z M256,277.333c-11.771,0-21.333-9.573-21.333-21.333s9.563-21.333,21.333-21.333     s21.333,9.573,21.333,21.333S267.771,277.333,256,277.333z"/><path d="M487.88,338.281c-6.757-25.216-25.792-53.762-53.613-82.413c13.933-14.357,25.591-28.669,34.653-42.616     c0.141,0.003,0.258,0.081,0.4,0.081c11.77,0,21.332-9.573,21.332-21.333c0-5.016-1.999-9.435-4.906-13.081     c6.627-20.229,6.209-37.788-2.135-51.94c-18.798-31.897-72.736-38.207-141-21.755C323.404,41.154,292.108,0,256,0     c-36.109,0-67.407,41.158-86.611,105.233c-15.253-3.716-29.851-6.299-43.635-7.716c-3.449-7.143-10.62-12.184-19.077-12.184     c-8.339,0-15.387,4.93-18.895,11.913c-28.603,2.667-49.318,12.612-59.392,29.733c-7.666,12.99-9.083,28.719-4.271,46.74     c6.747,25.177,25.734,53.673,53.486,82.281c-27.752,28.608-46.739,57.104-53.486,82.281c-4.812,18.021-3.396,33.75,4.271,46.74     c12.166,20.646,39.018,30.625,74.974,30.625c19.57,0,41.915-3.078,65.967-8.872c2.652,8.876,5.586,17.305,8.73,25.383     c-4.446,3.913-7.389,9.471-7.389,15.844c0,11.76,9.562,21.333,21.332,21.333c1.302,0,2.435-0.52,3.673-0.744     C213.158,496.936,233.843,512,256,512c36.109,0,67.411-41.159,86.614-105.237c24.075,5.803,46.434,8.883,66.021,8.883     c35.956-0.01,62.808-9.979,74.974-30.625C491.275,372.031,492.692,356.302,487.88,338.281z M46.75,374.188     c-4.646-7.875-5.333-18.094-2.042-30.385c5.822-21.716,22.999-47.063,48.111-72.884c17.443,16.197,37.51,32.245,59.717,47.569     c2.405,23.845,6.156,46.538,11.225,67.568C103.668,400.402,59.238,395.395,46.75,374.188z M150.382,290.721     c-15.41-11.354-29.526-23.025-42.211-34.721c12.685-11.697,26.799-23.366,42.21-34.72c-0.617,11.365-1.047,22.887-1.047,34.72     C149.333,267.76,149.763,279.302,150.382,290.721z M152.539,193.51c-22.21,15.326-42.276,31.375-59.72,47.572     c-25.112-25.822-42.289-51.168-48.111-72.884c-3.292-12.292-2.604-22.51,2.042-30.396c7.85-13.318,26.134-18.148,42.397-19.674     c3.815,5.802,10.065,9.872,17.52,9.872c7.186,0,13.236-3.801,17.103-9.255c12.648,1.306,26.039,3.647,40.068,7.039     C158.805,146.586,154.986,169.306,152.539,193.51z M336.225,178.297c-8.339-5.228-16.836-10.379-25.621-15.349     c-9.543-5.4-19.138-10.439-28.738-15.262c15.831-6.438,31.118-11.869,45.669-16.171     C331.023,145.996,333.975,161.592,336.225,178.297z M256,21.333c23.783,0,49.1,33.659,65.941,89.457     c-21.078,6.228-43.223,14.477-65.941,24.632c-22.445-10.025-44.617-18.288-65.941-24.632C206.9,54.991,232.217,21.333,256,21.333     z M184.505,131.349c14.879,4.445,30.21,9.865,45.815,16.246c-9.602,4.827-19.242,9.87-28.924,15.353     c-8.785,4.97-17.283,10.121-25.621,15.349C178.034,161.529,181,145.876,184.505,131.349z M175.849,333.75     c8.315,5.212,16.788,10.346,25.547,15.302c9.638,5.454,19.255,10.585,28.813,15.391c-15.878,6.462-31.146,11.756-45.737,16.072     C180.951,365.74,178.049,350.096,175.849,333.75z M256,490.667c-14.816,0-30.303-12.905-43.967-36.238     c0.664-2.061,1.301-4.15,1.301-6.428c0-9.173-5.884-16.849-14.03-19.855c-3.401-8.402-6.478-17.49-9.318-27.012     c21.125-6.237,43.24-14.332,66.014-24.512c22.759,10.172,44.858,18.266,65.967,24.5C305.126,456.973,279.794,490.667,256,490.667     z M327.526,380.521c-14.591-4.316-29.858-9.612-45.737-16.077c9.559-4.806,19.176-9.938,28.815-15.392     c8.742-4.947,17.27-10.079,25.617-15.322C333.97,350.439,331.017,366.038,327.526,380.521z M339.279,306.197     c-12.559,8.38-25.535,16.574-39.174,24.293c-14.96,8.466-29.697,16.004-44.107,22.716c-14.409-6.714-29.143-14.25-44.102-22.716     c-13.585-7.686-26.611-15.789-39.094-24.121c-1.389-16.439-2.135-33.305-2.135-50.368c0-17.486,0.729-34.288,2.068-50.323     c12.504-8.348,25.552-16.466,39.161-24.167c15.034-8.507,29.753-15.846,44.23-22.583c14.639,6.832,29.357,14.31,43.978,22.583     c13.609,7.701,26.658,15.819,39.161,24.167c1.339,16.035,2.068,32.837,2.068,50.323     C341.333,273.439,340.609,290.201,339.279,306.197z M409.25,117.688c28.313,0,48.25,6.979,56,20.125     c4.967,8.452,5,19.814,0.665,33.546C455.835,173.056,448,181.451,448,192c0,3.68,1.182,6.974,2.828,9.999     c-8.29,12.719-18.979,25.809-31.749,38.987c-17.419-16.164-37.453-32.18-59.619-47.475c-2.443-24.161-6.251-46.845-11.271-67.617     C371.111,120.411,391.805,117.688,409.25,117.688z M361.62,221.279c15.375,11.328,29.46,22.97,42.124,34.641     c-12.678,11.716-26.78,23.306-42.112,34.608c0.611-11.302,1.035-22.762,1.035-34.527     C362.667,244.167,362.237,232.643,361.62,221.279z M465.25,374.188c-12.514,21.223-56.951,26.228-117.047,11.869     c5.025-20.802,8.833-43.522,11.273-67.721c22.052-15.257,42.012-31.31,59.534-47.589c25.203,25.88,42.447,51.292,48.281,73.056     C470.583,356.094,469.896,366.313,465.25,374.188z"/></g><g transform="matrix(0.10487467050552368 0 0 0.10487467050552368 259.15208435058594 33.15208435058594)" id="L1_8"><path d="M472.787,13.051H39.213C17.591,13.051,0,30.642,0,52.264v258.128c0,0.801,0.103,1.576,0.281,2.322v41.62    c0,21.622,17.591,39.213,39.213,39.213h140.398v43.159h-41.07c-3.242,0-6.285,1.566-8.169,4.204l-30.118,42.165    c-2.185,3.06-2.478,7.086-0.757,10.429c1.721,3.344,5.166,5.445,8.927,5.445h294.871c3.761,0,7.206-2.101,8.927-5.445    s1.429-7.369-0.757-10.429l-30.118-42.165c-1.885-2.638-4.928-4.204-8.17-4.204h-41.07v-43.159h140.398    c21.621,0,39.213-17.591,39.213-39.213v-43.942V52.264C512,30.642,494.409,13.051,472.787,13.051z M368.293,456.784l15.776,22.086    H128.213l15.776-22.086H368.293z M199.971,436.706v-43.159H312.31v43.159H199.971z M491.922,354.334    c0,10.55-8.583,19.135-19.135,19.135H39.494c-10.551,0-19.135-8.583-19.135-19.135v-33.902h471.562V354.334z M491.922,300.353    H20.078V52.264c0-10.551,8.584-19.135,19.135-19.135h433.574c10.551,0,19.135,8.584,19.135,19.135V300.353z"/><path d="M275.747,336.906h-39.213c-5.545,0-10.039,4.495-10.039,10.039s4.495,10.039,10.039,10.039h39.213    c5.544,0,10.039-4.495,10.039-10.039S281.291,336.906,275.747,336.906z"/><path d="M95.619,118.114H85.375c-8.428,0-15.284-6.857-15.284-15.284s6.857-15.284,15.284-15.284h10.244    c5.545,0,10.039-4.495,10.039-10.039c0-5.545-4.495-10.039-10.039-10.039H85.375c-19.499,0-35.362,15.863-35.362,35.362    s15.863,35.362,35.362,35.362h10.244c5.545,0,10.039-4.495,10.039-10.039C105.658,122.609,101.163,118.114,95.619,118.114z"/><path d="M129.173,67.469c-12.919,0-12.941,20.078,0,20.078C142.092,87.547,142.113,67.469,129.173,67.469z"/><path d="M130.512,118.114c-12.919,0-12.941,20.078,0,20.078C143.431,138.193,143.452,118.114,130.512,118.114z"/><path d="M192.782,68.023c-5.236-1.817-10.959,0.956-12.775,6.194l-17.569,50.646c-1.817,5.238,0.956,10.959,6.194,12.776    c1.089,0.377,2.199,0.557,3.291,0.557c4.157,0,8.045-2.603,9.484-6.752l17.569-50.646C200.793,75.559,198.02,69.84,192.782,68.023    z"/><path d="M317.856,166.991H152.794c-5.545,0-10.039,4.495-10.039,10.039c0,5.545,4.495,10.039,10.039,10.039h165.062    c5.544,0,10.039-4.495,10.039-10.039C327.895,171.486,323.399,166.991,317.856,166.991z"/><path d="M221.523,210.508H56.463c-5.545,0-10.039,4.495-10.039,10.039c0,5.545,4.495,10.039,10.039,10.039h165.061    c5.545,0,10.039-4.495,10.039-10.039C231.563,215.003,227.068,210.508,221.523,210.508z"/><path d="M380.581,253.663c-12.919,0-12.941,20.078,0,20.078C393.5,273.741,393.522,253.663,380.581,253.663z"/><path d="M418.06,253.663c-12.919,0-12.941,20.078,0,20.078C430.981,273.741,431.002,253.663,418.06,253.663z"/><path d="M455.54,253.663c-12.919,0-12.941,20.078,0,20.078C468.46,273.741,468.481,253.663,455.54,253.663z"/><path d="M105.114,166.991H56.463c-5.545,0-10.039,4.495-10.039,10.039c0,5.545,4.495,10.039,10.039,10.039h48.651    c5.545,0,10.039-4.495,10.039-10.039C115.153,171.486,110.658,166.991,105.114,166.991z"/><path d="M344.439,253.663H56.463c-5.545,0-10.039,4.494-10.039,10.039s4.495,10.039,10.039,10.039h287.977    c5.544,0,10.039-4.495,10.039-10.039S349.983,253.663,344.439,253.663z"/><path d="M378.09,210.508H264.125c-5.544,0-10.039,4.495-10.039,10.039c0,5.545,4.496,10.039,10.039,10.039H378.09    c5.545,0,10.039-4.495,10.039-10.039C388.129,215.003,383.634,210.508,378.09,210.508z"/><path d="M455.54,166.991h-93.03c-5.544,0-10.039,4.495-10.039,10.039c0,5.545,4.496,10.039,10.039,10.039h93.03    c5.544,0,10.039-4.495,10.039-10.039C465.58,171.486,461.084,166.991,455.54,166.991z"/><path d="M423.584,63.581h-90.347c-5.544,0-10.039,4.495-10.039,10.039c0,5.545,4.495,10.039,10.039,10.039h90.347    c5.544,0,10.039-4.495,10.039-10.039C433.623,68.076,429.127,63.581,423.584,63.581z"/><path d="M455.54,63.581c-12.919,0-12.941,20.078,0,20.078C468.46,83.66,468.481,63.581,455.54,63.581z"/></g><g transform="matrix(0.11283962004103354 -0.018298316057795156 0.018298316057795156 0.11283962004103354 164.42868699906475 305.7974169663562)" id="L1_9"><path d="M429.807,200.17c-1.448-32.498-11.79-63.411-30.093-90.124c15.085-6.833,31.182-11.367,51.33-11.406    c2.264-0.004,4.491-0.877,5.977-2.585c2.333-2.683,2.482-6.493,0.567-9.302c-0.83-1.218-19.946-28.755-64.333-52.583    c-3.788-2.033-8.513-0.542-10.428,3.306l-0.001,0.002c-1.824,3.667-0.416,8.132,3.193,10.072    c24.189,12.997,40.332,27.227,49.529,36.746c-30.623,3.431-52.821,16.599-76.127,30.425    c-24.721,14.666-50.284,29.831-89.279,35.148c-70.935,9.673-132.248-30.877-144.654-39.745    c-1.204-8.561-3.284-36.193,15.159-59.174c19.032-23.717,54.015-35.741,103.976-35.741c38.613,0,74.292,5.676,106.181,16.879    c3.9,1.37,8.183-0.574,9.663-4.434c1.528-3.982-0.509-8.468-4.532-9.883C322.398,5.975,284.995,0,244.623,0    c-54.801,0-93.774,13.938-115.836,41.426c-20.195,25.163-20.116,54.272-18.763,67.492c-9.37,3.229-26.01,11.199-38.356,29.467    c-15.181,22.46-19.075,53.004-11.6,90.805c-5.742,11.903-8.963,25.242-8.963,39.319c0,27.142,11.976,51.538,30.917,68.189v1.326    C82.023,433.955,160.068,512,255.998,512c95.939,0,173.99-78.045,173.99-173.975v-1.336    c18.935-16.652,30.906-41.042,30.906-68.179C460.893,241.286,448.847,216.824,429.807,200.17z M160.499,147.141    c34.242,15.021,64.319,19.386,87.717,19.386c9.038,0,17.083-0.652,23.98-1.593c42.048-5.733,70.17-22.417,94.984-37.137    c6.408-3.801,12.602-7.474,18.811-10.859c15.114,21.466,24.519,45.992,27.634,71.912c-12.931-7.093-27.764-11.132-43.524-11.132    c-45.691,0-83.6,33.928-89.875,77.911c-15.358-7.066-33.093-7.067-48.451,0c-6.275-43.984-44.184-77.911-89.875-77.911    c-2.598,0-5.168,0.116-7.71,0.331c3.19-16.957,1.302-33.017-1.541-45.166C140.072,137.267,149.473,142.304,160.499,147.141z     M395.738,197.409v142.202c-8.009,2.897-16.641,4.484-25.638,4.484c-41.678,0-75.585-33.908-75.585-75.585    c0-41.678,33.908-75.585,75.585-75.585C379.098,192.925,387.729,194.511,395.738,197.409z M276.183,270.582v67.613    c0,11.125-9.052,20.177-20.177,20.177c-11.125,0-20.177-9.052-20.177-20.177v-67.62    C248.42,263.841,263.594,263.843,276.183,270.582z M84.104,147.147c9.533-14.25,22.533-20.773,29.938-23.499    c3.809,10.572,10.219,33.781,3.902,57.283c-17.99,4.926-33.767,15.26-45.469,29.138C69.638,184.066,73.528,162.954,84.104,147.147    z M66.315,268.51c0-26.641,13.868-50.091,34.75-63.555v77.171c0,4.199,3.405,7.604,7.604,7.604s7.604-3.405,7.604-7.604v-84.721    c9.26-3.348,19.349-4.945,29.872-4.363c38.343,2.119,69.302,33.213,71.24,71.565c2.196,43.443-32.516,79.488-75.486,79.488    c-8.993,0-17.62-1.586-25.626-4.48v-22.003c0-4.199-3.405-7.604-7.604-7.604s-7.604,3.405-7.604,7.604v14.453    C80.182,318.601,66.315,295.151,66.315,268.51z M255.998,496.792c-84.295,0-153.446-66.037-158.464-149.092    c13.128,7.383,28.261,11.603,44.365,11.603c33.619,0,63.029-18.367,78.722-45.593v24.487c0,19.512,15.873,35.385,35.385,35.385    s35.385-15.873,35.385-35.385v-24.468c15.697,27.216,45.1,45.575,78.71,45.575c16.108,0,31.247-4.222,44.377-11.61    C409.462,430.751,340.304,496.792,255.998,496.792z M410.946,332.058V204.962c20.876,13.466,34.739,36.911,34.739,63.548    C445.685,295.147,431.823,318.592,410.946,332.058z"/><path d="M178.434,243.737H164.91c-4.199,0-7.604,3.405-7.604,7.604s3.404,7.604,7.604,7.604h13.525    c4.199,0,7.604-3.405,7.604-7.604S182.634,243.737,178.434,243.737z"/><path d="M347.09,243.737h-13.525c-4.199,0-7.604,3.405-7.604,7.604s3.405,7.604,7.604,7.604h13.525    c4.199,0,7.604-3.405,7.604-7.604S351.291,243.737,347.09,243.737z"/><path d="M383.75,375.147c-1.155-2.796-3.929-4.657-6.95-4.696c-3.625-0.046-6.793,2.592-7.528,6.116    c-1.417,6.795,6.734,11.671,12.125,7.489C384.073,381.98,385.038,378.268,383.75,375.147z"/><path d="M366.686,403.251c-2.643-6.259-11.853-6.091-14.177,0.346c-2.352,6.514,4.927,12.557,10.908,9.171    C366.692,410.914,368.156,406.736,366.686,403.251z"/><path d="M349.866,372.674c-4.89-4.892-13.535-0.882-12.95,6.012c0.271,3.199,2.604,5.945,5.711,6.739    c3.062,0.782,6.364-0.482,8.142-3.087C352.804,379.354,352.422,375.229,349.866,372.674z"/><path d="M142.298,375.148c-1.118-2.801-3.952-4.657-6.949-4.696c-3.266-0.043-6.266,2.124-7.282,5.217    c-0.967,2.945-0.019,6.294,2.39,8.262c2.546,2.079,6.229,2.282,8.98,0.49C142.451,382.458,143.706,378.47,142.298,375.148z"/><path d="M159.372,403.251c-1.318-3.121-4.581-5.05-7.955-4.637c-3.3,0.404-5.973,2.983-6.557,6.241    c-1.195,6.668,6.682,11.395,12.078,7.364C159.694,410.161,160.633,406.411,159.372,403.251z"/><path d="M174.539,375.148c-2.653-6.29-11.863-6.062-14.177,0.346c-2.361,6.538,4.91,12.522,10.898,9.169    C174.546,382.823,176.009,378.629,174.539,375.148z"/><path d="M304.044,405.418h-96.077c-4.199,0-7.604,3.405-7.604,7.604s3.405,7.604,7.604,7.604h96.077    c4.199,0,7.604-3.405,7.604-7.604S308.243,405.418,304.044,405.418z"/><path d="M278.754,434.22h-45.496c-4.199,0-7.604,3.405-7.604,7.604s3.405,7.604,7.604,7.604h45.496    c4.199,0,7.604-3.405,7.604-7.604S282.953,434.22,278.754,434.22z"/></g><g transform="matrix(0.12799745798110962 0 0 0.12799745798110962 93.23265075683594 221.2366129160805)" id="L1_11"><path d="M197.416,267.762c-2.106-3.567-6.704-4.754-10.272-2.648c-3.567,2.104-4.753,6.703-2.648,10.271    c13.122,22.242,9.546,50.515-8.694,68.755c-8.451,8.451-19.056,13.747-30.215,15.7l13.481-53.924    c0.561-2.24,0.057-4.614-1.364-6.435c-1.421-1.821-3.602-2.884-5.912-2.884h-22.459l12.197-48.788    c7.916,0.818,15.745,3.305,22.942,7.551c3.567,2.104,8.165,0.919,10.271-2.648c2.105-3.567,0.919-8.166-2.648-10.271    c-28.135-16.599-63.904-12.073-86.983,11.006c-23.079,23.079-27.605,58.848-11.007,86.984c1.399,2.371,3.899,3.69,6.467,3.69    c1.295,0,2.607-0.335,3.804-1.042c3.567-2.104,4.753-6.703,2.648-10.271c-13.122-22.241-9.546-50.515,8.694-68.755    c8.451-8.45,19.056-13.746,30.216-15.699l-13.481,53.924c-0.561,2.24-0.057,4.614,1.364,6.435s3.602,2.884,5.912,2.884h22.459    l-12.197,48.788c-7.916-0.818-15.745-3.305-22.942-7.551c-3.568-2.105-8.166-0.919-10.271,2.648    c-2.105,3.567-0.919,8.166,2.648,10.271c11.332,6.686,23.9,9.944,36.381,9.944c18.506,0,36.818-7.167,50.602-20.951    C209.489,331.667,214.015,295.898,197.416,267.762z"/><path d="M412.119,242.441c-28.136-16.599-63.904-12.073-86.984,11.006c-23.08,23.079-27.605,58.849-11.006,86.984    c1.399,2.371,3.899,3.69,6.467,3.69c1.295,0,2.607-0.335,3.804-1.042c3.567-2.104,4.753-6.703,2.648-10.271    c-13.122-22.241-9.546-50.514,8.694-68.755c18.239-18.24,46.513-21.813,68.754-8.693c3.567,2.104,8.167,0.919,10.271-2.648    C416.872,249.144,415.686,244.546,412.119,242.441z"/><path d="M437.438,267.763c-2.104-3.568-6.701-4.755-10.27-2.649c-3.567,2.104-4.753,6.703-2.648,10.271    c13.122,22.242,9.546,50.515-8.694,68.755s-46.514,21.816-68.755,8.694c-3.567-2.104-8.166-0.919-10.271,2.648    s-0.919,8.166,2.648,10.271c11.332,6.686,23.9,9.944,36.381,9.944c18.506,0,36.819-7.167,50.603-20.95    C449.511,331.668,454.037,295.899,437.438,267.763z"/><path d="M502.76,139.443l-33.037-33.037c-2.929-2.929-7.678-2.929-10.606,0c-2.929,2.929-2.929,7.678,0,10.606l33.037,33.037    c3.126,3.126,4.847,7.282,4.847,11.702v62.7h-54.435c-17.99-15.006-41.119-24.048-66.323-24.048    c-48.652,0-89.578,33.683-100.703,78.952c-5.378-4.256-12.164-6.807-19.539-6.807s-14.161,2.551-19.539,6.807    c-11.125-45.269-52.051-78.952-100.703-78.952c-25.204,0-48.333,9.042-66.323,24.048H15v-62.7c0-4.42,1.721-8.576,4.847-11.702    l33.037-33.037c2.929-2.929,2.929-7.678,0-10.606c-2.929-2.929-7.678-2.929-10.606,0L9.24,139.443    C3.281,145.403,0,153.325,0,161.751v87.402c0,12.027,6.682,22.839,17.439,28.218l16.295,8.147    c-1.095,6.03-1.67,12.238-1.67,18.578c0,57.177,46.517,103.694,103.694,103.694s103.693-46.517,103.693-103.694    c0-9.125,7.423-16.548,16.548-16.548s16.548,7.423,16.548,16.548c0,57.177,46.517,103.694,103.693,103.694    c57.176,0,103.694-46.517,103.694-103.694c0-6.34-0.575-12.549-1.67-18.578l16.295-8.147C505.318,271.993,512,261.18,512,249.153    v-87.402C512,153.325,508.719,145.403,502.76,139.443z M24.148,263.955C18.505,261.133,15,255.462,15,249.153v-9.702h39.745    c-7.398,9.252-13.25,19.791-17.153,31.225L24.148,263.955z M135.758,392.79c-48.906,0-88.694-39.788-88.694-88.694    s39.788-88.693,88.694-88.693s88.693,39.788,88.693,88.693C224.451,353.001,184.664,392.79,135.758,392.79z M376.242,392.79    c-48.906,0-88.693-39.788-88.693-88.694s39.788-88.693,88.693-88.693c48.905,0,88.694,39.788,88.694,88.693    C464.936,353.001,425.147,392.79,376.242,392.79z M497,249.153c0,6.309-3.505,11.98-9.147,14.801l-13.444,6.722    c-3.904-11.435-9.755-21.973-17.153-31.225H497V249.153z"/></g><g transform="matrix(0.11988765001296997 0 0 0.11988765001296997 24.267379641532898 -28.732620358467102)" id="L1_12"><path d="M496.004,152c0-13.232-10.768-24-24-24c-2.752,0-5.36,0.56-7.824,1.416l-35.848-44.808     c2.288-3.672,3.672-7.968,3.672-12.608c0-13.232-10.768-24-24-24c-6.728,0-12.792,2.8-17.152,7.264L327.788,26.16     c0.064-0.72,0.216-1.416,0.216-2.16c0-13.232-10.768-24-24-24c-10.416,0-19.216,6.712-22.528,16h-90.944     C187.22,6.712,178.42,0,168.004,0c-13.232,0-24,10.768-24,24c0,0.992,0.176,1.944,0.296,2.912l-39.68,19.84     C100.3,42.592,94.46,40,88.004,40c-13.232,0-24,10.768-24,24c0,4.64,1.384,8.936,3.672,12.608l-35.848,44.808     C29.364,120.56,26.756,120,24.004,120c-13.232,0-24,10.768-24,24c0,10.416,6.712,19.216,16,22.528v50.952     c-9.288,3.304-16,12.104-16,22.52c0,13.232,10.768,24,24,24c8.888,0,16.568-4.912,20.72-12.104l43.672,7.936     C90.244,271.24,100.084,280,112.004,280c0.32,0,0.624-0.08,0.944-0.096l15.264,38.168c-4.992,4.4-8.208,10.768-8.208,17.928     c0,13.232,10.768,24,24,24c8.048,0,15.144-4.016,19.496-10.104l68.656,19.616c0.616,9.744,7.016,17.864,15.848,21.016v58.952     c-9.288,3.312-16,12.112-16,22.528c0,13.232,10.768,24,24,24s24-10.768,24-24c0-10.416-6.712-19.216-16-22.528v-58.952     c9.288-3.312,16-12.112,16-22.528c0-7.664-3.68-14.424-9.288-18.824l9.552-28.664l71.784,23.928     c0.192,10.216,6.8,18.816,15.952,22.08v82.952c-9.288,3.312-16,12.112-16,22.528c0,13.232,10.768,24,24,24s24-10.768,24-24     c0-10.416-6.712-19.216-16-22.528v-82.944c9.288-3.312,16-12.112,16-22.528c0-2.92-0.6-5.688-1.56-8.28l61.384-51.152     c3.576,2.128,7.712,3.432,12.176,3.432c13.232,0,24-10.768,24-24c0-10.416-6.712-19.216-16-22.528V174.52     C489.292,171.216,496.004,162.416,496.004,152z M408.004,64c4.408,0,8,3.584,8,8s-3.592,8-8,8c-4.408,0-8-3.584-8-8     S403.596,64,408.004,64z M396.628,93c3.4,1.856,7.24,3,11.376,3c2.752,0,5.352-0.56,7.816-1.416l35.848,44.816     c-2.28,3.672-3.664,7.96-3.664,12.6c0,1.288,0.184,2.528,0.384,3.768l-56.672,30.912l-41.272-34.392     c0.96-2.6,1.56-5.368,1.56-8.288c0-3.248-0.664-6.352-1.84-9.176L396.628,93z M296.004,224c-3.696,0-7.152,0.904-10.28,2.408     l-33.896-33.896l59.84-31.032c4.296,4.016,10.008,6.52,16.336,6.52c4.464,0,8.592-1.304,12.176-3.432l36.424,30.352     l-64.664,35.272C307.692,226.384,302.148,224,296.004,224z M304.004,248c0,4.416-3.592,8-8,8c-4.408,0-8-3.584-8-8     c0-4.416,3.592-8,8-8C300.412,240,304.004,243.584,304.004,248z M183.052,159.896l13.432,43.28l-68.144,35.336     c-2.856-2.664-6.352-4.6-10.24-5.632l-11.088-85.024l54.816-2.744C165.308,153.544,173.468,159.512,183.052,159.896z      M176.004,136c0-4.416,3.592-8,8-8s8,3.584,8,8s-3.592,8-8,8S176.004,140.416,176.004,136z M201.292,218.712l20.288,65.384     l-85.624-28.544c-0.016-0.96-0.16-1.888-0.288-2.816L201.292,218.712z M201.236,164.552l23.824,23.816l-14.152,7.336     L201.236,164.552z M205.604,146.28c1.496-3.128,2.4-6.584,2.4-10.28c0-3.408-0.736-6.64-2.016-9.576l37.984-35.456l61.232,45.92     c-0.712,2.272-1.2,4.624-1.2,7.112c0,1.12,0.184,2.184,0.328,3.264l-64.376,33.376L205.604,146.28z M320.004,144     c0-4.416,3.592-8,8-8c4.408,0,8,3.584,8,8s-3.592,8-8,8C323.596,152,320.004,148.416,320.004,144z M389.828,205.936l57.32,47.768     l-124.2-11.288L389.828,205.936z M304.004,16c4.408,0,8,3.584,8,8s-3.592,8-8,8c-4.408,0-8-3.584-8-8S299.596,16,304.004,16z      M293.012,45.208c3.304,1.72,7.008,2.792,10.992,2.792c6.728,0,12.792-2.8,17.16-7.272l63.056,29.104     c-0.064,0.728-0.216,1.424-0.216,2.168c0,3.256,0.664,6.352,1.84,9.184L339.38,123c-3.4-1.856-7.24-3-11.376-3     c-4.912,0-9.48,1.496-13.288,4.04l-58.864-44.152L293.012,45.208z M281.476,32c0.192,0.52,0.328,1.064,0.544,1.568l-39.176,36.56     L192.004,32H281.476z M168.004,16c4.408,0,8,3.584,8,8s-3.592,8-8,8s-8-3.584-8-8S163.596,16,168.004,16z M112.004,64     c0-0.992-0.176-1.944-0.296-2.904l39.68-19.84c4.32,4.152,10.16,6.744,16.616,6.744c4.912,0,9.48-1.496,13.288-4.04     l49.672,37.256l-35.968,33.568c-3.304-1.72-7.008-2.784-10.992-2.784c-10.832,0-19.904,7.256-22.88,17.128l-56.192,2.808     l-6.08-46.648C106.62,81.312,112.004,73.312,112.004,64z M88.004,56c4.408,0,8,3.584,8,8s-3.592,8-8,8s-8-3.584-8-8     S83.596,56,88.004,56z M80.18,86.584c0.928,0.32,1.84,0.664,2.808,0.872l5.904,45.288L46.18,134.88     c-0.504-1.224-1.152-2.368-1.848-3.488L80.18,86.584z M24.004,136c4.408,0,8,3.584,8,8s-3.592,8-8,8s-8-3.584-8-8     S19.596,136,24.004,136z M24.004,248c-4.408,0-8-3.584-8-8s3.592-8,8-8s8,3.584,8,8S28.412,248,24.004,248z M91.284,244.104     l-43.664-7.936c-1.416-8.712-7.496-15.8-15.616-18.696V166.52c7.144-2.552,12.68-8.352,14.88-15.656l44.096-2.208l11.152,85.52     C97.54,236.264,93.788,239.76,91.284,244.104z M112.004,264c-4.408,0-8-3.584-8-8c0-4.416,3.592-8,8-8s8,3.584,8,8     C120.004,260.416,116.412,264,112.004,264z M144.004,344c-4.408,0-8-3.584-8-8c0-4.416,3.592-8,8-8s8,3.584,8,8     C152.004,340.416,148.412,344,144.004,344z M236.516,354.104l-68.656-19.616C167.052,321.968,156.724,312,144.004,312     c-0.32,0-0.624,0.08-0.944,0.096l-15.264-38.168c1.112-0.984,2.12-2.056,3.04-3.224l96.592,32.2l14.264,45.952     C239.716,350.344,237.956,352.096,236.516,354.104z M256.004,480c-4.408,0-8-3.584-8-8c0-4.416,3.592-8,8-8c4.408,0,8,3.584,8,8     C264.004,476.416,260.412,480,256.004,480z M256.004,376c-4.408,0-8-3.584-8-8c0-4.416,3.592-8,8-8c4.408,0,8,3.584,8,8     C264.004,372.416,260.412,376,256.004,376z M256.276,341.888l-10.168-32.752l18.976,6.328L256.276,341.888z M270.148,300.28     l-29.872-9.96l-24.544-79.088l21.2-10.992l37.48,37.48c-1.504,3.128-2.408,6.584-2.408,10.28c0,7.664,3.68,14.432,9.296,18.824     L270.148,300.28z M376.004,480c-4.408,0-8-3.584-8-8c0-4.416,3.592-8,8-8c4.408,0,8,3.584,8,8     C384.004,476.416,380.412,480,376.004,480z M376.004,352c-4.408,0-8-3.584-8-8c0-4.416,3.592-8,8-8c4.408,0,8,3.584,8,8     C384.004,348.416,380.412,352,376.004,352z M388.18,323.424c-3.584-2.12-7.712-3.424-12.176-3.424     c-7.664,0-14.432,3.68-18.824,9.296l-71.856-23.952l11.128-33.392c9.456-0.176,17.544-5.84,21.288-13.944l131.088,11.912     c0.208,0.8,0.448,1.584,0.736,2.352L388.18,323.424z M404.94,197.688l51.128-27.888c2.296,2.064,4.976,3.664,7.944,4.72v66.952     c-1.472,0.528-2.864,1.176-4.184,1.96L404.94,197.688z M472.004,272c-4.408,0-8-3.584-8-8c0-4.416,3.592-8,8-8     c4.408,0,8,3.584,8,8C480.004,268.416,476.412,272,472.004,272z M472.004,160c-4.408,0-8-3.584-8-8s3.592-8,8-8     c4.408,0,8,3.584,8,8S476.412,160,472.004,160z"/><rect x="16px" y="0px" width="16px" height="16px"/><rect x="16px" y="32px" width="16px" height="16px"/><rect x="32px" y="16px" width="16px" height="16px"/><rect x="0px" y="16px" width="16px" height="16px"/><rect x="416px" y="368px" width="16px" height="16px"/><rect x="416px" y="400px" width="16px" height="16px"/><rect x="432px" y="384px" width="16px" height="16px"/><rect x="400px" y="384px" width="16px" height="16px"/><rect x="464px" y="32px" width="16px" height="16px"/><rect x="464px" y="64px" width="16px" height="16px"/><rect x="480px" y="48px" width="16px" height="16px"/><rect x="448px" y="48px" width="16px" height="16px"/><rect x="96px" y="384px" width="16px" height="16px"/><rect x="96px" y="416px" width="16px" height="16px"/><rect x="112px" y="400px" width="16px" height="16px"/><rect x="80px" y="400px" width="16px" height="16px"/><rect x="48px" y="296px" width="16px" height="16px"/><rect x="48px" y="328px" width="16px" height="16px"/><rect x="64px" y="312px" width="16px" height="16px"/><rect x="32px" y="312px" width="16px" height="16px"/></g><path d="M368,184C368,82.544,285.464,0,184,0S0,82.544,0,184c0,63.768,33.344,123.024,87.376,156.464L80.6,356.96    c-1.264,3.088-0.496,6.632,1.952,8.896C84.072,367.264,86.024,368,88,368c1.208,0,2.44-0.28,3.568-0.84L184,320.944l92.432,46.216    c1.128,0.56,2.352,0.84,3.568,0.84c1.976,0,3.928-0.736,5.448-2.144c2.448-2.272,3.216-5.816,1.952-8.896l-6.776-16.496    C334.656,307.024,368,247.768,368,184z M176,307.056l-72.512,36.28l30.152-73.448l6.92,4.936L176,300.12V307.056z     M218.152,193.712C227,184.744,232,172.776,232,160c0-26.472-21.528-48-48-48s-48,21.528-48,48c0,12.768,4.992,24.72,13.84,33.696    l-25,55.504l-2.168,5.28c0,0.008,0,0.016-0.008,0.024l-10.512,25.592C81.856,257.504,64,222.256,64,184    c0-66.168,53.832-120,120-120s120,53.832,120,120c0,38.256-17.856,73.504-48.16,96.104l-10.504-25.592    c0-0.008,0-0.016-0.008-0.024L218.152,193.712z M228.096,254.704L198.528,275.8L192,280.464v-73.136    c2.416-0.408,4.792-1.032,7.112-1.8c0.72-0.24,1.392-0.56,2.096-0.832c1.24-0.472,2.504-0.888,3.696-1.464L228.096,254.704z     M176,280.472l-36.096-25.76l23.192-51.48c1.184,0.568,2.424,0.976,3.648,1.448c0.72,0.28,1.416,0.608,2.152,0.856    c2.32,0.768,4.688,1.392,7.104,1.8V280.472z M165,185.728c-0.184-0.136-0.4-0.232-0.584-0.376    C156.528,179.192,152,169.952,152,160c0-17.648,14.352-32,32-32s32,14.352,32,32c0,9.96-4.528,19.208-12.424,25.352    C192.68,193.792,176.056,193.864,165,185.728z M192,307.056v-6.936l35.44-25.296l6.92-4.936l30.16,73.448L192,307.056z     M274.472,325.48l-12.384-30.16C298.456,269.848,320,228.744,320,184c0-74.992-61.008-136-136-136S48,109.008,48,184    c0,44.744,21.544,85.848,57.912,111.32l-12.384,30.16C45.504,294.704,16,241.336,16,184C16,91.36,91.368,16,184,16    s168,75.36,168,168C352,241.336,322.496,294.704,274.472,325.48z" transform="matrix(0.16304348409175873 0 0 0.16304348409175873 275 226)" id="L1_16"/><path d="M458.509,140.744v-0.016C403.651,20.065,261.362-33.28,140.699,21.579c-52.812,24.01-95.139,66.338-119.15,119.15    c-14.238,31.172-21.578,65.05-21.52,99.32v75.152c-0.038,14.859,5.87,29.116,16.408,39.592l32.336,32.344l4.392,12.112    c13.553,35.926,48.233,59.448,86.624,58.752c1.68,0,3.384-0.208,5.08-0.288l0.4,1.104c6.048,16.714,24.501,25.361,41.215,19.313    c0,0,0.001,0,0.001,0l1.312-0.472c16.709-6.024,25.37-24.453,19.346-41.161c-0.001-0.002-0.002-0.005-0.002-0.007l-63.368-175.2    c-6.094-16.681-24.516-25.31-41.232-19.312l-1.296,0.472c-14.203,5.077-22.933,19.383-20.952,34.336    c-13.759,10.017-24.596,23.525-31.392,39.128c-0.548-1.074-0.846-2.258-0.872-3.464v-72.4c0-106.039,85.961-192,192-192    s192,85.961,192,192v72.4c-0.048,0.568-0.161,1.129-0.336,1.672c-6.853-14.858-17.392-27.716-30.616-37.352    c1.975-14.943-6.745-29.238-20.936-34.32l-1.328-0.48c-16.703-5.99-35.107,2.64-41.184,19.312l-63.376,175.2    c-6.03,16.705,2.623,35.136,19.328,41.168l1.312,0.48c16.716,6.029,35.157-2.615,41.216-19.32l0.4-1.104    c1.688,0.08,3.4,0.288,5.08,0.288c38.389,0.697,73.069-22.821,86.624-58.744l5.128-14.176l30.28-30.288    c10.536-10.474,16.444-24.728,16.408-39.584v-75.152C480.085,205.784,472.745,171.912,458.509,140.744z M97.525,265.825    c1.81-3.896,5.111-6.9,9.16-8.336l1.296-0.472c8.41-3.044,17.696,1.303,20.744,9.712l63.368,175.2    c3.026,8.382-1.316,17.63-9.698,20.656c-0.007,0.003-0.014,0.005-0.022,0.008l-1.312,0.472    c-8.407,3.029-17.681-1.314-20.736-9.712l-2.4-6.696L96.965,278.12C95.505,274.111,95.706,269.685,97.525,265.825z     M85.317,293.057v-0.032L139.229,442c-28.981,0.335-55.588-15.974-68.44-41.952c0.2,0,0.408,0,0.608,0c0.2,0,0.424,0,0.632,0    c0.8,0,1.52-0.152,2.28-0.224c0.76-0.072,1.312-0.072,1.968-0.184c1.048-0.2,2.082-0.467,3.096-0.8    c0.576-0.176,1.152-0.288,1.712-0.504c1.073-0.443,2.113-0.962,3.112-1.552c0.472-0.264,0.968-0.456,1.424-0.752    c11.558-7.456,14.884-22.869,7.429-34.427c-0.969-1.502-2.097-2.896-3.365-4.157L61.021,328.76    C65.632,314.827,74.048,302.46,85.317,293.057z M32.029,240.049v72.4c-0.018,6.369,2.514,12.479,7.032,16.968l39.312,39.32    c3.504,3.504,3.504,9.184,0,12.688c-3.504,3.504-9.184,3.504-12.688,0l-37.936-37.952c-7.527-7.48-11.747-17.661-11.72-28.272    v-75.152c-0.052-30.254,6.078-60.2,18.016-88h17.488C38.694,179.609,32.037,209.644,32.029,240.049z M240.029,32.049    c-74.312,0.016-142.976,39.656-180.152,104H41.629C99.06,26.475,234.444-15.795,344.017,41.636    c40.336,21.142,73.271,54.076,94.412,94.412h-18.248C383.005,71.704,314.341,32.065,240.029,32.049z M332.165,422.672l-8.68,24    l-2.4,6.696c-3.044,8.413-12.332,12.766-20.745,9.723c-0.002-0.001-0.005-0.002-0.007-0.003l-1.312-0.48    c-8.392-3.021-12.747-12.272-9.728-20.664l63.376-175.2c3.035-8.402,12.307-12.754,20.709-9.719    c0.006,0.002,0.013,0.005,0.019,0.007l1.328,0.48c8.386,3.014,12.742,12.256,9.728,20.642c-0.003,0.007-0.005,0.014-0.008,0.022    L332.165,422.672z M342.189,442l35.352-97.752l18.52-51.2c11.002,9.182,19.298,21.184,24,34.72l-29.648,29.656    c-9.734,9.758-9.734,25.554,0,35.312c1.284,1.271,2.703,2.398,4.232,3.36c0.504,0.32,1.032,0.536,1.552,0.8    c1.03,0.577,2.099,1.079,3.2,1.504c0.624,0.232,1.256,0.384,1.896,0.56c1.029,0.304,2.076,0.542,3.136,0.712    c0.68,0.096,1.352,0.144,2.032,0.192c0.552,0,1.088,0.16,1.6,0.16c0.512,0,0.968-0.112,1.456-0.144c0.488-0.032,0.8,0.048,1.16,0    C397.869,425.942,371.226,442.327,342.189,442z M464.029,315.201c0.026,10.613-4.194,20.796-11.72,28.28l-31.528,31.536l-6.4,6.4    c-3.504,3.504-9.184,3.504-12.688,0c-3.504-3.504-3.504-9.184,0-12.688l39.312-39.32c4.51-4.49,7.039-10.596,7.024-16.96v-72.4    c-0.008-30.405-6.664-60.44-19.504-88h17.488c11.938,27.8,18.068,57.746,18.016,88V315.201z" transform="matrix(0.12498489767313004 0 0 0.12498489767313004 182 134)" id="L1_17"/><g transform="matrix(0.1062001341973215 -0.028963672299763505 0.028963672299763505 0.1062001341973215 -5.601934463253762 134.22746575422516)" id="L1_18"><path d="M424.624,156.283H404.24v-5.776c0-4.142-3.357-7.5-7.5-7.5h-34.874c-4.143,0-7.5,3.358-7.5,7.5v17.927h-19.391V48.035    C334.976,21.548,313.427,0,286.94,0h-61.88c-26.486,0-48.035,21.548-48.035,48.035v41.876c0,4.142,3.357,7.5,7.5,7.5    s7.5-3.358,7.5-7.5V48.035C192.024,29.819,206.844,15,225.06,15h61.881c18.216,0,33.035,14.819,33.035,33.035v207.436    c0,18.216-14.819,33.035-33.035,33.035H225.06c-18.216,0-33.035-14.819-33.035-33.035V124.089c0-4.142-3.357-7.5-7.5-7.5    s-7.5,3.358-7.5,7.5v44.345h-19.391v-17.927c0-4.142-3.357-7.5-7.5-7.5H115.26c-4.143,0-7.5,3.358-7.5,7.5v5.776H87.376    c-4.143,0-7.5,3.358-7.5,7.5v24.301c0,4.142,3.357,7.5,7.5,7.5h20.384v13.695h-7.675c-4.143,0-7.5,3.358-7.5,7.5    c0,4.142,3.357,7.5,7.5,7.5h7.675v12.537c0,4.486,0.212,8.924,0.604,13.31h-8.279c-4.143,0-7.5,3.358-7.5,7.5s3.357,7.5,7.5,7.5    h10.398c10.772,55.477,52.573,100.003,106.55,114.724v51.395c0,4.142,3.357,7.5,7.5,7.5s7.5-3.358,7.5-7.5V383.11    c1.311,0.214,2.628,0.412,3.95,0.591v24.279c0,11.037,8.979,20.017,20.017,20.017c11.038,0,20.017-8.979,20.017-20.017v-24.293    c1.321-0.179,2.637-0.374,3.95-0.588v90.593h-47.934v-8.27c0-4.142-3.357-7.5-7.5-7.5s-7.5,3.358-7.5,7.5v8.27H183.88    c-4.143,0-7.5,3.358-7.5,7.5V504.5c0,4.142,3.357,7.5,7.5,7.5h144.24c4.143,0,7.5-3.358,7.5-7.5v-23.309    c0-4.142-3.357-7.5-7.5-7.5h-33.153v-93.839c15.689-4.277,30.634-11.14,44.296-20.447c3.423-2.332,4.308-6.998,1.976-10.421    c-2.331-3.422-6.997-4.307-10.421-1.976c-22.134,15.078-48.005,23.048-74.817,23.048c-73.469,0-133.24-59.771-133.24-133.241    v-78.81h19.874v78.81c0,62.51,50.855,113.366,113.366,113.366s113.366-50.856,113.366-113.366v-78.81h19.874v78.81    c0,32.796-12.081,64.339-34.018,88.818c-2.765,3.085-2.505,7.826,0.58,10.591c3.086,2.765,7.828,2.505,10.59-0.58    c18.005-20.092,30.033-44.465,35.109-70.52h8.165c4.143,0,7.5-3.358,7.5-7.5c0-4.142-3.357-7.5-7.5-7.5h-6.028    c0.397-4.408,0.601-8.848,0.601-13.31V224.28h5.427c4.143,0,7.5-3.358,7.5-7.5c0-4.142-3.357-7.5-7.5-7.5h-5.427v-13.695h20.384    c4.143,0,7.5-3.358,7.5-7.5v-24.301C432.124,159.641,428.767,156.283,424.624,156.283z M107.76,180.584H94.876v-9.301h12.884    V180.584z M320.62,488.691V497H191.38v-8.309H320.62z M250.983,384.964c1.666,0.056,3.337,0.094,5.017,0.094    c1.676-0.001,3.348-0.038,5.017-0.094v23.016c0,2.766-2.25,5.017-5.017,5.017c-2.767,0-5.017-2.25-5.017-5.017V384.964z     M334.975,183.434h19.391v0v25.846h-19.391V183.434z M157.633,183.434h19.391v0v25.846h-19.391V183.434z M157.634,236.816V224.28    h19.391v25.846h-18.487C157.946,245.772,157.634,241.33,157.634,236.816z M256,335.183c-44.401,0-82.02-29.574-94.208-70.057H178    c4.481,21.875,23.88,38.38,47.06,38.38h61.881c23.18,0,42.578-16.505,47.06-38.38h16.207    C338.02,305.608,300.401,335.183,256,335.183z M354.367,236.817c0,4.514-0.312,8.955-0.904,13.31h-18.487V224.28h19.391V236.817z     M417.124,180.584H404.24v-9.301h12.884V180.584z"/><path d="M299.667,75.982h-50.759c-4.143,0-7.5,3.358-7.5,7.5c0,4.142,3.357,7.5,7.5,7.5h50.759c4.143,0,7.5-3.358,7.5-7.5    C307.167,79.34,303.81,75.982,299.667,75.982z"/><path d="M299.667,106.833h-50.759c-4.143,0-7.5,3.358-7.5,7.5c0,4.142,3.357,7.5,7.5,7.5h50.759c4.143,0,7.5-3.358,7.5-7.5    C307.167,110.191,303.81,106.833,299.667,106.833z"/><path d="M299.667,137.684h-50.759c-4.143,0-7.5,3.358-7.5,7.5c0,4.142,3.357,7.5,7.5,7.5h50.759c4.143,0,7.5-3.358,7.5-7.5    C307.167,141.042,303.81,137.684,299.667,137.684z"/><path d="M299.667,168.535h-50.759c-4.143,0-7.5,3.358-7.5,7.5c0,4.142,3.357,7.5,7.5,7.5h50.759c4.143,0,7.5-3.358,7.5-7.5    C307.167,171.893,303.81,168.535,299.667,168.535z"/><path d="M299.667,199.386h-50.759c-4.143,0-7.5,3.358-7.5,7.5c0,4.142,3.357,7.5,7.5,7.5h50.759c4.143,0,7.5-3.358,7.5-7.5    C307.167,202.744,303.81,199.386,299.667,199.386z"/><path d="M299.667,230.236h-50.759c-4.143,0-7.5,3.358-7.5,7.5c0,4.142,3.357,7.5,7.5,7.5h50.759c4.143,0,7.5-3.358,7.5-7.5    C307.167,233.594,303.81,230.236,299.667,230.236z"/><path d="M382.324,65.541h-9.489c-4.143,0-7.5,3.358-7.5,7.5c0,4.142,3.357,7.5,7.5,7.5h9.489c4.143,0,7.5-3.358,7.5-7.5    C389.824,68.899,386.467,65.541,382.324,65.541z"/><path d="M383.439,41.848c-2.072-3.587-6.659-4.816-10.245-2.745l-8.218,4.745c-3.587,2.071-4.816,6.658-2.745,10.245    c1.39,2.406,3.911,3.751,6.502,3.751c1.272,0,2.563-0.324,3.743-1.006l8.218-4.745C384.281,50.022,385.51,45.435,383.439,41.848z"/><path d="M380.695,93.989l-8.218-4.744c-3.589-2.073-8.176-0.842-10.245,2.745c-2.072,3.587-0.842,8.174,2.745,10.245l8.218,4.744    c1.182,0.682,2.471,1.006,3.743,1.006c2.592,0,5.113-1.346,6.502-3.751C385.511,100.647,384.282,96.06,380.695,93.989z"/></g></defs><g fi:class="KUsePattern"><pattern id="pattern_L1_0" width="350" height="350" patternUnits="userSpaceOnUse"><use xlink:href="#L1_0" x="-350" y="-350"/><use xlink:href="#L1_0" x="0" y="-350"/><use xlink:href="#L1_0" x="350" y="-350"/><use xlink:href="#L1_0" x="-350" y="0"/><use xlink:href="#L1_0" x="0" y="0"/><use xlink:href="#L1_0" x="350" y="0"/><use xlink:href="#L1_0" x="-350" y="350"/><use xlink:href="#L1_0" x="0" y="350"/><use xlink:href="#L1_0" x="350" y="350"/></pattern><rect x="0" y="0" width="100%" height="100%" fill="url(#pattern_L1_0)"/></g><g fi:class="KUsePattern"><pattern id="pattern_L1_8" width="350" height="350" patternUnits="userSpaceOnUse"><use xlink:href="#L1_8" x="-350" y="-350"/><use xlink:href="#L1_8" x="0" y="-350"/><use xlink:href="#L1_8" x="350" y="-350"/><use xlink:href="#L1_8" x="-350" y="0"/><use xlink:href="#L1_8" x="0" y="0"/><use xlink:href="#L1_8" x="350" y="0"/><use xlink:href="#L1_8" x="-350" y="350"/><use xlink:href="#L1_8" x="0" y="350"/><use xlink:href="#L1_8" x="350" y="350"/></pattern><rect x="0" y="0" width="100%" height="100%" fill="url(#pattern_L1_8)"/></g><g fi:class="KUsePattern"><pattern id="pattern_L1_9" width="350" height="350" patternUnits="userSpaceOnUse"><use xlink:href="#L1_9" x="-350" y="-350"/><use xlink:href="#L1_9" x="0" y="-350"/><use xlink:href="#L1_9" x="350" y="-350"/><use xlink:href="#L1_9" x="-350" y="0"/><use xlink:href="#L1_9" x="0" y="0"/><use xlink:href="#L1_9" x="350" y="0"/><use xlink:href="#L1_9" x="-350" y="350"/><use xlink:href="#L1_9" x="0" y="350"/><use xlink:href="#L1_9" x="350" y="350"/></pattern><rect x="0" y="0" width="100%" height="100%" fill="url(#pattern_L1_9)"/></g><g fi:class="KUsePattern"><pattern id="pattern_L1_11" width="350" height="350" patternUnits="userSpaceOnUse"><use xlink:href="#L1_11" x="-350" y="-350"/><use xlink:href="#L1_11" x="0" y="-350"/><use xlink:href="#L1_11" x="350" y="-350"/><use xlink:href="#L1_11" x="-350" y="0"/><use xlink:href="#L1_11" x="0" y="0"/><use xlink:href="#L1_11" x="350" y="0"/><use xlink:href="#L1_11" x="-350" y="350"/><use xlink:href="#L1_11" x="0" y="350"/><use xlink:href="#L1_11" x="350" y="350"/></pattern><rect x="0" y="0" width="100%" height="100%" fill="url(#pattern_L1_11)"/></g><g fi:class="KUsePattern"><pattern id="pattern_L1_12" width="350" height="350" patternUnits="userSpaceOnUse"><use xlink:href="#L1_12" x="-350" y="-350"/><use xlink:href="#L1_12" x="0" y="-350"/><use xlink:href="#L1_12" x="350" y="-350"/><use xlink:href="#L1_12" x="-350" y="0"/><use xlink:href="#L1_12" x="0" y="0"/><use xlink:href="#L1_12" x="350" y="0"/><use xlink:href="#L1_12" x="-350" y="350"/><use xlink:href="#L1_12" x="0" y="350"/><use xlink:href="#L1_12" x="350" y="350"/></pattern><rect x="0" y="0" width="100%" height="100%" fill="url(#pattern_L1_12)"/></g><g fi:class="KUsePattern"><pattern id="pattern_L1_16" width="350" height="350" patternUnits="userSpaceOnUse"><use xlink:href="#L1_16" x="-350" y="-350"/><use xlink:href="#L1_16" x="0" y="-350"/><use xlink:href="#L1_16" x="350" y="-350"/><use xlink:href="#L1_16" x="-350" y="0"/><use xlink:href="#L1_16" x="0" y="0"/><use xlink:href="#L1_16" x="350" y="0"/><use xlink:href="#L1_16" x="-350" y="350"/><use xlink:href="#L1_16" x="0" y="350"/><use xlink:href="#L1_16" x="350" y="350"/></pattern><rect x="0" y="0" width="100%" height="100%" fill="url(#pattern_L1_16)"/></g><g fi:class="KUsePattern"><pattern id="pattern_L1_17" width="350" height="350" patternUnits="userSpaceOnUse"><use xlink:href="#L1_17" x="-350" y="-350"/><use xlink:href="#L1_17" x="0" y="-350"/><use xlink:href="#L1_17" x="350" y="-350"/><use xlink:href="#L1_17" x="-350" y="0"/><use xlink:href="#L1_17" x="0" y="0"/><use xlink:href="#L1_17" x="350" y="0"/><use xlink:href="#L1_17" x="-350" y="350"/><use xlink:href="#L1_17" x="0" y="350"/><use xlink:href="#L1_17" x="350" y="350"/></pattern><rect x="0" y="0" width="100%" height="100%" fill="url(#pattern_L1_17)"/></g><g fi:class="KUsePattern"><pattern id="pattern_L1_18" width="350" height="350" patternUnits="userSpaceOnUse"><use xlink:href="#L1_18" x="-350" y="-350"/><use xlink:href="#L1_18" x="0" y="-350"/><use xlink:href="#L1_18" x="350" y="-350"/><use xlink:href="#L1_18" x="-350" y="0"/><use xlink:href="#L1_18" x="0" y="0"/><use xlink:href="#L1_18" x="350" y="0"/><use xlink:href="#L1_18" x="-350" y="350"/><use xlink:href="#L1_18" x="0" y="350"/><use xlink:href="#L1_18" x="350" y="350"/></pattern><rect x="0" y="0" width="100%" height="100%" fill="url(#pattern_L1_18)"/></g></svg>
