<?xml version="1.0" encoding="UTF-8" standalone="no"?>
<svg
   xmlns:dc="http://purl.org/dc/elements/1.1/"
   xmlns:cc="http://creativecommons.org/ns#"
   xmlns:rdf="http://www.w3.org/1999/02/22-rdf-syntax-ns#"
   xmlns:svg="http://www.w3.org/2000/svg"
   xmlns="http://www.w3.org/2000/svg"
   xmlns:sodipodi="http://sodipodi.sourceforge.net/DTD/sodipodi-0.dtd"
   xmlns:inkscape="http://www.inkscape.org/namespaces/inkscape"
   width="24"
   height="24"
   viewBox="0 0 24 24"
   version="1.1"
   id="svg4"
   sodipodi:docname="qubit-podcast-logo.svg"
   inkscape:version="0.92.2 2405546, 2018-03-11">
  <metadata
     id="metadata10">
    <rdf:RDF>
      <cc:Work
         rdf:about="">
        <dc:format>image/svg+xml</dc:format>
        <dc:type
           rdf:resource="http://purl.org/dc/dcmitype/StillImage" />
        <dc:title />
      </cc:Work>
    </rdf:RDF>
  </metadata>
  <defs
     id="defs8" />
  <sodipodi:namedview
     pagecolor="#ffffff"
     bordercolor="#666666"
     borderopacity="1"
     objecttolerance="10"
     gridtolerance="10"
     guidetolerance="10"
     inkscape:pageopacity="0"
     inkscape:pageshadow="2"
     inkscape:window-width="878"
     inkscape:window-height="873"
     id="namedview6"
     showgrid="true"
     inkscape:zoom="9.8333331"
     inkscape:cx="7.0831078"
     inkscape:cy="2.3216684"
     inkscape:window-x="890"
     inkscape:window-y="44"
     inkscape:window-maximized="0"
     inkscape:current-layer="svg4">
    <inkscape:grid
       type="xygrid"
       id="grid12" />
  </sodipodi:namedview>
  <path
     id="headphone"
     d="M 12,1 C 7.214,1 3.8275938,4.2254219 2.5585938,8.6074219 3.3025931,8.3044219 4.140125,8.0947188 5.078125,8.0117188 6.425125,5.4737181 8.92,3.9725156 12,3.9785156 c 3.081,-0.006 5.577781,1.4961563 6.925781,4.0351563 0.942,0.084 1.782297,0.2926097 2.529297,0.5996093 C 20.185078,4.2252819 16.789,1 12,1 Z M 5.2832031,10 C 1.7312031,10.302 0,12.885 0,15.5 0,17.91 1.564625,20.39 4.515625,21 3.617625,19.6 3,17.782 3,16 3,13.708 3.8682031,11.591 5.2832031,10 Z M 18.716797,10 C 20.131797,11.591 21,13.708 21,16 c 0,1.782 -0.603,3.6 -1.5,5 2.95,-0.611 4.5,-3.091 4.5,-5.5 0,-2.614 -1.731203,-5.197 -5.283203,-5.5 z"
     style="fill:#161654;fill-opacity:1" />
  <path
     style="stroke-width:1.16666663;fill:#eead16;fill-opacity:1"
     d="M 12.123047 8.4316406 A 7 7 0 0 0 5.1230469 15.431641 A 7 7 0 0 0 12.123047 22.431641 A 7 7 0 0 0 16.128906 21.169922 L 17 22 L 18.378906 20.550781 L 17.589844 19.800781 A 7 7 0 0 0 19.123047 15.431641 A 7 7 0 0 0 12.123047 8.4316406 z M 12.068359 10.986328 A 4.5 4.5 0 0 1 16.568359 15.486328 A 4.5 4.5 0 0 1 15.759766 18.058594 L 14.757812 17.103516 L 13.378906 18.550781 L 14.273438 19.402344 A 4.5 4.5 0 0 1 12.068359 19.986328 A 4.5 4.5 0 0 1 7.5683594 15.486328 A 4.5 4.5 0 0 1 12.068359 10.986328 z "
     id="q" />
</svg>
